<svg width="161" height="63" viewBox="0 0 191 63" fill="none" xmlns="http://www.w3.org/2000/svg">
<path d="M89.105 23.6067H92.8259V39.6516H89.105V37.9714C87.5794 39.3991 85.9385 40.1129 84.1823 40.1129C81.9652 40.1129 80.1322 39.3112 78.6834 37.7078C77.2455 36.0715 76.5266 34.0288 76.5266 31.5797C76.5266 29.1746 77.2455 27.1704 78.6834 25.567C80.1212 23.9636 81.9213 23.1619 84.0835 23.1619C85.9495 23.1619 87.6233 23.9307 89.105 25.4682V23.6067ZM80.3133 31.5797C80.3133 33.1173 80.7249 34.3692 81.5481 35.3357C82.3932 36.3131 83.4579 36.8018 84.7421 36.8018C86.1141 36.8018 87.2227 36.3295 88.0678 35.3851C88.913 34.4077 89.3355 33.1667 89.3355 31.6621C89.3355 30.1576 88.913 28.9166 88.0678 27.9392C87.2227 26.9837 86.1251 26.506 84.775 26.506C83.5018 26.506 82.4372 26.9892 81.581 27.9556C80.7359 28.933 80.3133 30.1411 80.3133 31.5797Z" fill="#263238"/>
<path d="M101.206 48.3825H97.5016V23.6067H101.206V25.3529C102.666 23.8922 104.323 23.1619 106.178 23.1619C108.384 23.1619 110.201 23.9746 111.628 25.5999C113.076 27.2143 113.801 29.2515 113.801 31.7115C113.801 34.1166 113.082 36.1209 111.644 37.7243C110.217 39.3167 108.417 40.1129 106.244 40.1129C104.367 40.1129 102.688 39.3606 101.206 37.8561V48.3825ZM110.014 31.728C110.014 30.1905 109.597 28.9385 108.763 27.9721C107.918 26.9947 106.853 26.506 105.569 26.506C104.208 26.506 103.105 26.9782 102.26 27.9227C101.415 28.8671 100.992 30.1081 100.992 31.6456C100.992 33.1502 101.415 34.3912 102.26 35.3686C103.094 36.324 104.191 36.8018 105.552 36.8018C106.837 36.8018 107.896 36.3186 108.73 35.3521C109.586 34.3857 110.014 33.1777 110.014 31.728Z" fill="#263238"/>
<path d="M121.424 23.6067V39.6516H117.719V23.6067H121.424ZM117.16 16.935C117.16 16.2871 117.396 15.727 117.867 15.2547C118.339 14.7825 118.905 14.5464 119.563 14.5464C120.233 14.5464 120.804 14.7825 121.275 15.2547C121.747 15.716 121.983 16.2816 121.983 16.9515C121.983 17.6214 121.747 18.1925 121.275 18.6647C120.815 19.1369 120.249 19.3731 119.58 19.3731C118.91 19.3731 118.339 19.1369 117.867 18.6647C117.396 18.1925 117.16 17.6159 117.16 16.935Z" fill="#263238"/>
<path d="M129.936 27.0661V39.6516H126.231V27.0661H124.651V23.6067H126.231V17.7257H129.936V23.6067H132.817V27.0661H129.936Z" fill="#263238"/>
<path d="M134.809 31.5139C134.809 29.1966 135.638 27.2253 137.295 25.5999C138.952 23.9746 140.972 23.1619 143.354 23.1619C145.746 23.1619 147.777 23.9801 149.445 25.6164C151.092 27.2528 151.915 29.2625 151.915 31.6456C151.915 34.0507 151.086 36.066 149.429 37.6913C147.76 39.3057 145.713 40.1129 143.288 40.1129C140.884 40.1129 138.87 39.2892 137.245 37.6419C135.621 36.0165 134.809 33.9739 134.809 31.5139ZM138.596 31.5797C138.596 33.1831 139.024 34.4516 139.88 35.3851C140.758 36.3295 141.916 36.8018 143.354 36.8018C144.802 36.8018 145.96 36.335 146.827 35.4015C147.695 34.4681 148.128 33.2216 148.128 31.6621C148.128 30.1026 147.695 28.8562 146.827 27.9227C145.949 26.9782 144.791 26.506 143.354 26.506C141.938 26.506 140.791 26.9782 139.913 27.9227C139.035 28.8671 138.596 30.0862 138.596 31.5797Z" fill="#263238"/>
<path d="M156.426 37.8066C156.426 37.1916 156.651 36.659 157.101 36.2087C157.551 35.7585 158.089 35.5333 158.714 35.5333C159.34 35.5333 159.878 35.7585 160.328 36.2087C160.778 36.659 161.003 37.1971 161.003 37.8231C161.003 38.4601 160.778 39.0037 160.328 39.454C159.889 39.8933 159.351 40.1129 158.714 40.1129C158.067 40.1129 157.524 39.8933 157.084 39.454C156.645 39.0147 156.426 38.4656 156.426 37.8066Z" fill="#263238"/>
<path d="M169.959 23.6067V39.6516H166.255V23.6067H169.959ZM165.695 16.935C165.695 16.2871 165.931 15.727 166.403 15.2547C166.875 14.7825 167.44 14.5464 168.099 14.5464C168.768 14.5464 169.339 14.7825 169.811 15.2547C170.283 15.716 170.519 16.2816 170.519 16.9515C170.519 17.6214 170.283 18.1925 169.811 18.6647C169.35 19.1369 168.785 19.3731 168.115 19.3731C167.446 19.3731 166.875 19.1369 166.403 18.6647C165.931 18.1925 165.695 17.6159 165.695 16.935Z" fill="#263238"/>
<path d="M173.894 31.5139C173.894 29.1966 174.723 27.2253 176.38 25.5999C178.038 23.9746 180.057 23.1619 182.439 23.1619C184.832 23.1619 186.862 23.9801 188.531 25.6164C190.177 27.2528 191 29.2625 191 31.6456C191 34.0507 190.171 36.066 188.514 37.6913C186.846 39.3057 184.799 40.1129 182.373 40.1129C179.969 40.1129 177.955 39.2892 176.331 37.6419C174.706 36.0165 173.894 33.9739 173.894 31.5139ZM177.681 31.5797C177.681 33.1831 178.109 34.4516 178.965 35.3851C179.843 36.3295 181.001 36.8018 182.439 36.8018C183.888 36.8018 185.046 36.335 185.913 35.4015C186.78 34.4681 187.213 33.2216 187.213 31.6621C187.213 30.1026 186.78 28.8562 185.913 27.9227C185.035 26.9782 183.877 26.506 182.439 26.506C181.023 26.506 179.876 26.9782 178.998 27.9227C178.12 28.8671 177.681 30.0862 177.681 31.5797Z" fill="#263238"/>
<path d="M0 20.5546C0 9.20263 9.20263 0 20.5546 0H42.0579C53.41 0 62.6126 9.20263 62.6126 20.5546V42.0579C62.6126 53.41 53.41 62.6126 42.0579 62.6126H20.5546C9.20263 62.6126 0 53.41 0 42.0579V20.5546Z" fill="#E73A55"/>
<path d="M22.3204 24.4026C22.3204 25.1608 21.9183 25.8622 21.264 26.2453L19.6027 27.2179C15.9791 29.3395 15.9791 34.5772 19.6027 36.6988L21.2719 37.6761C21.9213 38.0564 22.3204 38.7525 22.3204 39.505C22.3204 41.1353 20.5565 42.1551 19.1437 41.3417L12.594 37.5708C8.26334 35.0774 8.25804 28.8302 12.5845 26.3295L19.1166 22.5539C20.5401 21.7311 22.3204 22.7584 22.3204 24.4026Z" fill="white"/>
<path d="M37.2705 14.5464C38.6039 14.5464 39.5315 15.8719 39.0736 17.1242C37.3317 21.8889 35.5792 26.6431 33.8162 31.3868C31.917 36.5702 30.0051 41.7661 28.0807 46.9747C27.8026 47.7274 27.085 48.2272 26.2825 48.2272C24.9476 48.2272 24.0213 46.897 24.4836 45.6448C26.2422 40.8816 27.9903 36.1289 29.7279 31.3868C31.6531 26.2068 33.5657 21.0142 35.4657 15.8091C35.7425 15.051 36.4634 14.5464 37.2705 14.5464Z" fill="white"/>
<path d="M40.292 39.4771C40.292 38.7152 40.698 38.011 41.3574 37.6291L43.0167 36.6683C46.6433 34.5682 46.6512 29.3349 43.031 27.2239L41.3511 26.2443C40.6953 25.8619 40.292 25.1599 40.292 24.4007C40.292 22.7574 42.0714 21.7306 43.4942 22.553L50.028 26.3295C54.3544 28.8302 54.3491 35.0774 50.0184 37.5707L43.493 41.3277C42.0693 42.1474 40.292 41.1198 40.292 39.4771Z" fill="white"/>
</svg>

